PathFileType	4	(X/Y/Z)	C:\Users\Basilio\Documents\Thesis Gigler\squatting_fais\c3dfiles\058\SLS_front_pre4\markers_experimental.trc
DataRate	CameraRate	NumFrames	NumMarkers	Units	OrigDataRate	OrigDataStartFrame	OrigNumFrames
200.000000	200.000000	4	61	mm	200.000000	160	1282
Frame#	Time	FHD			LBHD			RBHD			C7			T10			CLAV			LSHO			LUUPA			LMUPA			LDUPA			LLEP			LRAD			LUL			LRFIN			RSHO			RUPA1			RMUPA			RDUPA			RLEP			RMEP			RRAD			RUL			RUFIN			LASI			RASI			USACR			LSACR			RSACR			LTHI1			LTHI2			LTHI3			LTHI4			LLFC			LMFC			LTIB1			LTIB2			LTIB3			LTIB4			LLMAL			LMMAL			LHEE			LMT1			LMT2			LMT5			RTHI			RTHI2			RTHI3			RTHI4			RLFC			RMFC			RTIB1			RTIB2			RTIB3			RTIB4			RLMAL			RMMAL			RHEE			RMT1			RMT2			RMT5			LMEP			
		X1	Y1	Z1	X2	Y2	Z2	X3	Y3	Z3	X4	Y4	Z4	X5	Y5	Z5	X6	Y6	Z6	X7	Y7	Z7	X8	Y8	Z8	X9	Y9	Z9	X10	Y10	Z10	X11	Y11	Z11	X12	Y12	Z12	X13	Y13	Z13	X14	Y14	Z14	X15	Y15	Z15	X16	Y16	Z16	X17	Y17	Z17	X18	Y18	Z18	X19	Y19	Z19	X20	Y20	Z20	X21	Y21	Z21	X22	Y22	Z22	X23	Y23	Z23	X24	Y24	Z24	X25	Y25	Z25	X26	Y26	Z26	X27	Y27	Z27	X28	Y28	Z28	X29	Y29	Z29	X30	Y30	Z30	X31	Y31	Z31	X32	Y32	Z32	X33	Y33	Z33	X34	Y34	Z34	X35	Y35	Z35	X36	Y36	Z36	X37	Y37	Z37	X38	Y38	Z38	X39	Y39	Z39	X40	Y40	Z40	X41	Y41	Z41	X42	Y42	Z42	X43	Y43	Z43	X44	Y44	Z44	X45	Y45	Z45	X46	Y46	Z46	X47	Y47	Z47	X48	Y48	Z48	X49	Y49	Z49	X50	Y50	Z50	X51	Y51	Z51	X52	Y52	Z52	X53	Y53	Z53	X54	Y54	Z54	X55	Y55	Z55	X56	Y56	Z56	X57	Y57	Z57	X58	Y58	Z58	X59	Y59	Z59	X60	Y60	Z60	X61	Y61	Z61	

161	0.8	-313.8967285156251	1808.543212890625	-698.6567993164064	-467.9664916992189	1751.5439453125	-772.9124755859377	-302.1040954589844	1817.361572265625	-840.7995605468752	-471.1236267089845	1594.099487304688	-795.2424926757815	-464.8182678222657	1285.152587890625	-787.9072875976565	-315.0676269531251	1550.749267578125	-772.7540283203127	-323.0743408203126	1601.955932617188	-930.2753906250002	-175.8914031982422	1501.431274414063	-1041.30517578125	-145.0491027832032	1535.9521484375	-1020.771118164063	-105.6476364135742	1492.058715820313	-1036.61767578125	-32.48284530639649	1484.763061523438	-1022.901794433594	232.0113830566407	1468.302978515625	-924.4114379882815	236.928695678711	1478.63671875	-1004.651245117188	335.7804870605469	1476.562133789063	-926.5938720703127	-352.6369323730469	1599.25537109375	-616.5660400390626	-212.1266479492188	1488.077880859375	-496.2614746093751	-181.8284912109375	1523.280639648438	-515.7445068359376	-142.667221069336	1487.612670898438	-490.3184814453126	-77.56182098388673	1470.53759765625	-490.9077148437501	-72.56381225585939	1410.023803710938	-539.7932739257814	199.5816497802735	1456.433471679688	-543.8004760742189	191.7897186279297	1470.909301757813	-463.836395263672	290.7508239746094	1470.386474609375	-524.0649414062501	-274.9708557128907	1095.365112304688	-918.905456542969	-268.7759094238282	1088.984985351563	-674.5897827148439	-468.6421508789064	1164.97705078125	-780.1477661132815	-474.2321777343751	1133.060302734375	-808.1018066406252	-468.886199951172	1132.068603515625	-750.7291870117189	-313.8121643066407	818.466979980469	-1016.427490234375	-281.0819702148438	739.7503051757814	-1019.669677734375	-236.2940826416016	741.5180664062501	-996.4635009765627	-307.6553649902344	686.6398925781251	-1019.964721679688	-307.4761047363282	586.1022338867189	-1022.905883789063	-278.6412353515626	564.0100097656251	-899.7869873046877	-267.7133789062501	443.1648559570314	-1007.087646484375	-326.5121765136719	421.6750488281251	-1063.821899414063	-288.8585815429688	406.1345825195314	-1044.66015625	-299.4967956542969	321.6820983886719	-1031.217895507813	-389.0904541015626	137.3390197753907	-1067.891845703125	-360.2419738769532	141.3724060058594	-979.045349121094	-454.2994384765626	113.6561965942383	-1015.462463378906	-238.2950744628907	64.89171600341798	-1009.962585449219	-234.7982025146485	68.57460021972658	-1057.050903320313	-288.3420104980469	56.09315872192384	-1107.60302734375	-366.6504211425782	875.605163574219	-611.8059692382814	-328.2379760742188	821.6873168945315	-612.0918579101564	-295.2657470703126	822.849304199219	-614.4594116210939	-354.6844482421876	743.1224975585939	-629.2853393554689	-345.0070495605469	563.0855102539064	-651.8533325195314	-310.6192321777344	554.3038940429689	-783.6618652343752	-300.6195373535157	359.2644348144532	-740.9338378906251	-339.8208618164063	281.0594177246094	-673.8269042968751	-306.0247192382813	274.3952331542969	-707.5421752929689	-317.5213623046876	230.500961303711	-742.2873535156251	-382.0022888183594	126.4231109619141	-703.5197753906251	-351.3278503417969	144.6485595703125	-791.3343505859377	-446.7543029785157	107.3371276855469	-763.4436035156251	-236.7373809814454	58.88380050659181	-773.1383056640627	-232.0061645507813	61.17346954345705	-720.3438110351564	-283.4506530761719	32.44240951538087	-668.3867797851564	-35.15183258056641	1431.843505859375	-982.182800292969	
162	0.805	-314.1887207031251	1808.640502929688	-697.6614990234376	-467.7733154296876	1751.48291015625	-771.851257324219	-302.0133666992188	1817.423706054688	-839.4833984375002	-471.0352783203126	1594.033813476563	-793.8352661132815	-464.9707336425782	1285.271240234375	-786.5487060546877	-314.9593505859376	1550.63525390625	-771.554138183594	-322.9339599609376	1601.944458007813	-928.9404296875002	-175.7375640869141	1502.3798828125	-1039.88671875	-144.9562530517578	1536.811157226563	-1019.149658203125	-105.6122741699219	1493.210083007813	-1035.03857421875	-32.06590652465821	1486.256958007813	-1021.273986816406	232.3678283691407	1470.7451171875	-922.6728515625002	237.552963256836	1481.18310546875	-1002.748107910156	336.0519714355469	1479.496337890625	-924.4017333984377	-352.2857360839844	1599.525024414063	-615.4666748046876	-211.4985809326172	1489.182250976563	-495.137664794922	-181.4856719970703	1524.544067382813	-514.8333129882814	-142.161865234375	1489.1494140625	-489.2955322265626	-76.6466751098633	1472.183959960938	-489.9322204589845	-71.4202117919922	1411.706420898438	-538.9515380859376	199.9713439941407	1459.201538085938	-543.2109375000001	192.3685607910157	1473.769409179688	-463.2537536621095	291.0768127441407	1474.038696289063	-523.9458007812501	-275.2088623046876	1095.517944335938	-918.0607910156252	-268.5880737304688	1088.888061523438	-673.8027954101564	-468.6635742187501	1165.0224609375	-778.8508911132815	-474.5381774902345	1133.093627929688	-806.806579589844	-468.9971923828126	1132.156616210938	-749.1926879882814	-311.4869995117188	818.5543212890627	-1015.428100585938	-278.6593322753907	740.0937500000001	-1018.502014160156	-233.3785095214844	742.0266113281251	-995.5759277343752	-304.6310729980469	686.4899291992189	-1018.885925292969	-303.8497619628907	586.2493896484376	-1021.879089355469	-275.0648498535157	564.2874755859376	-899.0584106445315	-264.8735656738282	443.4439697265626	-1006.090270996094	-323.8684082031251	422.2264709472657	-1063.021362304688	-286.2519531250001	406.5574035644532	-1043.659057617188	-297.5777587890626	321.7828979492188	-1030.114379882813	-388.477508544922	138.3748016357422	-1067.180419921875	-359.9974060058594	141.7295074462891	-978.2779541015627	-453.9731445312501	114.4834976196289	-1014.590576171875	-238.3448181152344	64.92296600341798	-1009.37353515625	-234.7021179199219	69.27941131591798	-1056.513549804688	-288.3634338378907	57.88690567016603	-1107.177490234375	-366.4191284179688	875.4099731445315	-611.0356445312501	-328.0029602050782	821.4257812500002	-611.3751831054689	-295.1803894042969	822.718200683594	-613.9113769531251	-354.4420166015626	743.0105590820314	-628.4911499023439	-344.7798767089844	563.0944824218751	-651.1374511718751	-310.6070861816407	554.3635253906251	-783.173034667969	-300.5734252929688	359.2824401855469	-740.6547851562501	-339.6572265625001	281.1356506347657	-673.6505126953126	-306.0186462402344	274.3456726074219	-707.4033203125001	-317.5742492675782	230.549057006836	-742.1611938476564	-381.9327392578126	126.4616165161133	-703.4199829101564	-351.2658691406251	144.6835174560547	-791.3213500976565	-446.7705993652345	107.3247756958008	-763.3921508789064	-236.7678222656251	58.86273193359376	-773.147155761719	-231.9835357666016	61.16429901123048	-720.3518676757814	-283.4488220214844	32.50991439819337	-668.3898925781251	-34.65314102172852	1432.740356445313	-980.391784667969	
163	0.8100000000000001	-314.0989074707032	1808.845458984375	-696.3629760742189	-467.6700134277345	1751.416625976563	-770.6427001953127	-302.1406555175782	1817.45849609375	-838.4108886718752	-470.9627380371095	1594.0068359375	-792.6718750000002	-464.932830810547	1285.149536132813	-785.1999511718752	-314.8224792480469	1550.735717773438	-770.2789306640627	-322.8520507812501	1601.993896484375	-927.5083007812502	-175.0210418701172	1503.2939453125	-1038.5322265625	-144.5578765869141	1537.933349609375	-1017.717468261719	-105.0575790405274	1494.375	-1033.416137695313	-31.96470260620118	1487.376098632813	-1019.599853515625	232.1821441650391	1474.431640625	-919.2081298828127	237.8188018798829	1483.596313476563	-1000.619201660156	335.8748474121094	1483.109252929688	-921.7402343750002	-351.9032897949219	1599.780883789063	-614.3698120117189	-210.8153533935547	1490.330688476563	-494.2218627929689	-181.0094909667969	1525.385864257813	-513.8043823242189	-141.537582397461	1490.505615234375	-488.2403259277345	-75.9929656982422	1473.852172851563	-488.9554138183595	-70.22387695312501	1413.37548828125	-537.8544921875001	200.8229675292969	1462.2333984375	-542.5836181640626	193.2265930175782	1477.074340820313	-462.6246948242189	293.1672973632813	1477.96630859375	-522.6147460937501	-275.5626831054688	1095.497924804688	-917.201843261719	-268.5340576171876	1088.811767578125	-673.0217285156251	-468.7939453125001	1165.000732421875	-777.590759277344	-474.5454101562501	1133.159912109375	-805.6877441406252	-468.8509216308595	1132.18798828125	-748.2350463867189	-309.7087402343751	818.5046997070315	-1014.518798828125	-276.1809387207032	740.3422851562501	-1017.553833007813	-230.6343383789063	742.6583251953126	-994.7452392578127	-301.4327392578126	686.4929199218751	-1018.044250488281	-300.3795166015626	586.4097900390626	-1021.004089355469	-272.0577392578126	564.4895629882814	-898.1778564453127	-262.1010131835938	443.5632629394532	-1005.061462402344	-321.2613525390626	422.5325622558595	-1062.291870117188	-283.4924011230469	406.7906799316407	-1042.644653320313	-295.7809448242188	322.2640686035157	-1029.123168945313	-388.0144042968751	139.3934478759766	-1066.173095703125	-359.4744873046876	142.4537353515625	-977.1985473632815	-454.008026123047	115.6225814819336	-1013.169555664063	-238.1466064453126	65.20767974853517	-1008.767333984375	-233.9854583740235	70.15459442138673	-1055.948120117188	-287.9454040527344	58.79271316528322	-1106.905883789063	-366.0894470214844	875.3879394531252	-610.1765747070314	-327.7969055175782	821.255554199219	-610.6387939453126	-294.9957580566407	822.6270751953127	-613.2308349609376	-354.3792419433594	742.8183593750001	-628.0473022460939	-344.6269226074219	562.9939575195314	-650.6896362304689	-310.6104125976563	554.4335327148439	-782.7507934570315	-300.3807678222657	359.2724304199219	-740.4793090820314	-339.4309387207032	281.1007080078126	-673.5393676757814	-305.7321166992188	274.5178222656251	-707.4075927734376	-317.3619689941407	230.5711364746094	-742.1012573242189	-381.8696899414063	126.4496536254883	-703.3806152343751	-351.3092651367188	144.7146453857422	-791.276306152344	-446.7478637695314	107.3414382934571	-763.3563842773439	-236.6972198486329	58.78258514404298	-773.2053833007815	-232.0135803222657	61.12478637695314	-720.3340454101564	-283.4812316894532	32.41515350341798	-668.4068603515626	-34.13363647460938	1434.253051757813	-978.8618774414065	
164	0.8150000000000001	-313.9037780761719	1809.043090820313	-695.1112060546876	-467.5190429687501	1751.290161132813	-769.3309326171877	-302.1748962402344	1817.570922851563	-837.213073730469	-470.7937927246095	1594.11376953125	-791.2316894531252	-464.8226928710939	1285.276245117188	-783.8589477539065	-314.6464843750001	1550.819091796875	-769.0717773437502	-322.7262878417969	1602.0712890625	-926.1574707031252	-174.7078247070313	1504.207641601563	-1037.3349609375	-144.5937957763672	1538.963012695313	-1016.200622558594	-104.8429412841797	1495.305419921875	-1032.022827148438	-31.5710678100586	1488.758911132813	-1017.938171386719	232.673568725586	1476.841064453125	-917.3356933593752	238.2167205810547	1486.064331054688	-998.7114257812502	335.5679931640626	1485.959716796875	-920.2692871093752	-351.7012939453126	1599.908081054688	-613.2153930664064	-210.0527343750001	1491.58251953125	-492.906463623047	-180.5819244384766	1526.856811523438	-512.7103881835939	-140.4864959716797	1492.157836914063	-487.5901489257814	-75.3568572998047	1475.54296875	-487.9889221191407	-69.4240188598633	1415.043090820313	-536.7290649414064	201.6813964843751	1465.158813476563	-542.1264038085939	194.2476806640626	1479.986328125	-462.191375732422	292.8963623046876	1480.868041992188	-522.8901367187501	-275.9455871582032	1095.4951171875	-916.436706542969	-268.5129089355469	1088.68408203125	-672.3249511718751	-468.8691406250001	1164.982543945313	-776.427185058594	-474.6520996093751	1132.9853515625	-804.3779907226565	-468.8930664062501	1132.276245117188	-746.8432617187501	-307.5104675292969	818.509460449219	-1013.321533203125	-273.4089050292969	740.9341430664064	-1016.55078125	-228.3810119628907	743.2346191406251	-993.4517211914065	-298.6283264160157	686.6884155273439	-1016.822448730469	-296.9228210449219	586.6497192382814	-1020.098083496094	-268.7800292968751	565.0308837890626	-897.2611083984377	-259.6128540039063	443.5544738769532	-1003.881225585938	-318.4338989257813	423.1239013671876	-1061.3662109375	-280.9855346679688	407.0456542968751	-1041.717041015625	-293.6200866699219	322.5921630859376	-1027.933227539063	-387.476287841797	140.5828094482422	-1065.186157226563	-358.7365112304688	143.0456237792969	-976.1780395507815	-452.8709716796876	115.8358383178711	-1012.054992675781	-237.3576812744141	65.99100494384767	-1008.753479003906	-233.6254425048829	70.9542922973633	-1055.331787109375	-287.4075622558594	60.00260162353517	-1106.427368164063	-365.8323364257813	875.1361083984377	-609.3630371093751	-327.5057678222657	821.349548339844	-609.8811645507814	-294.6665039062501	822.467712402344	-612.4782104492189	-354.0114135742188	742.6870727539064	-627.3072509765626	-344.5078735351563	562.9584350585939	-650.4111328125001	-310.8317565917969	554.3421630859376	-782.3265380859377	-300.3820495605469	359.2849121093751	-740.2719726562501	-339.3527832031251	281.0331115722657	-673.4090576171876	-305.4397277832032	274.4569091796876	-707.2905883789064	-317.3138427734376	230.5719146728516	-742.0507812500001	-381.8374023437501	126.4884109497071	-703.3353881835939	-351.3427734375001	144.7278137207032	-791.3143310546877	-446.7191162109376	107.3469619750977	-763.3648071289064	-236.7323913574219	58.7141799926758	-773.245056152344	-231.9719543457032	61.157283782959	-720.3859863281251	-283.4260559082032	32.46588516235352	-668.4121704101564	-33.57917404174805	1435.341796875	-977.2500610351565	
